<svg width="17" height="17" viewBox="0 0 17 17" fill="none" xmlns="http://www.w3.org/2000/svg">
<path d="M15.129 13.6512C15.129 13.6512 14.2476 14.5169 14.0316 14.7707C13.6798 15.1461 13.2652 15.3234 12.7218 15.3234C12.6695 15.3234 12.6138 15.3234 12.5615 15.32C11.5268 15.2539 10.5653 14.8506 9.8442 14.5064C7.87241 13.5539 6.14099 12.2014 4.70221 10.4875C3.51426 9.05859 2.71997 7.73747 2.19392 6.31902C1.86994 5.45334 1.75149 4.77887 1.80375 4.14265C1.83858 3.73589 1.99535 3.39866 2.2845 3.1101L3.47245 1.92457C3.64316 1.76465 3.82431 1.67773 4.00198 1.67773C4.22146 1.67773 4.39913 1.80985 4.51061 1.9211C4.51409 1.92457 4.51757 1.92805 4.52106 1.93153C4.73357 2.12969 4.93562 2.33481 5.14813 2.55384C5.25612 2.66509 5.3676 2.77634 5.47908 2.89107L6.43014 3.84019C6.79942 4.20871 6.79942 4.54942 6.43014 4.91794C6.32912 5.01876 6.23157 5.11958 6.13054 5.21693C5.83791 5.51592 6.06779 5.28651 5.7647 5.55768C5.75774 5.56464 5.75077 5.56811 5.74729 5.57506C5.44768 5.87405 5.50342 6.16609 5.56613 6.36426C5.56962 6.37469 5.5731 6.38512 5.57658 6.39555C5.82393 6.99352 6.1723 7.55673 6.70183 8.22772L6.70531 8.2312C7.66682 9.41325 8.68059 10.3345 9.79887 11.0403C9.9417 11.1307 10.088 11.2037 10.2274 11.2732C10.3528 11.3358 10.4712 11.3949 10.5723 11.4575C10.5862 11.4644 10.6001 11.4749 10.6141 11.4818C10.7325 11.5409 10.844 11.5687 10.959 11.5687C11.2481 11.5687 11.4293 11.388 11.4885 11.3289L12.1713 10.6474C12.2898 10.5292 12.4779 10.3867 12.6974 10.3867C12.9134 10.3867 13.091 10.5222 13.199 10.6404C13.2025 10.6439 13.2025 10.6439 13.206 10.6474L15.1255 12.563C15.4844 12.9176 15.129 13.6512 15.129 13.6512Z" stroke="#D9D9D9" stroke-width="1.5" stroke-linecap="round" stroke-linejoin="round"/>
</svg>
