<svg width="92" height="118" viewBox="0 0 92 118" fill="none" xmlns="http://www.w3.org/2000/svg">
<path d="M45.8755 117.832C45.8755 117.832 91.6408 77.1513 91.6408 46.6412C91.6408 21.3658 71.151 0.875977 45.8755 0.875977C20.6001 0.875977 0.110291 21.3658 0.110291 46.6412C0.110291 77.1513 45.8755 117.832 45.8755 117.832Z" fill="#FF5C5C"/>
<path d="M60.4968 44.7352C60.4968 52.8093 53.9515 59.3547 45.8774 59.3547C37.8033 59.3547 31.2579 52.8093 31.2579 44.7352C31.2579 36.6611 37.8033 30.1158 45.8774 30.1158C53.9515 30.1158 60.4968 36.6611 60.4968 44.7352Z" fill="#FF5C5C"/>
<path fill-rule="evenodd" clip-rule="evenodd" d="M25.1257 32.1062C27.3969 29.8356 30.4769 28.5601 33.6884 28.5601C36.8999 28.5601 39.98 29.8356 42.2512 32.1062L45.7998 35.6518L49.3485 32.1062C50.4657 30.9494 51.8021 30.0267 53.2798 29.392C54.7574 28.7572 56.3466 28.4231 57.9548 28.4091C59.5629 28.3952 61.1578 28.7016 62.6462 29.3106C64.1346 29.9196 65.4869 30.8189 66.6241 31.956C67.7612 33.0932 68.6606 34.4455 69.2695 35.9339C69.8785 37.4224 70.1849 39.0172 70.171 40.6253C70.157 42.2335 69.8229 43.8227 69.1881 45.3004C68.5534 46.778 67.6307 48.1144 66.4739 49.2317L45.7998 69.9088L25.1257 49.2317C22.8552 46.9604 21.5797 43.8804 21.5797 40.6689C21.5797 37.4574 22.8552 34.3774 25.1257 32.1062V32.1062Z" fill="white"/>
</svg>
