<svg width="24" height="25" viewBox="0 0 24 25" fill="none" xmlns="http://www.w3.org/2000/svg">
<path d="M4 17.6421C4 18.1725 4.21071 18.6812 4.58579 19.0563C4.96086 19.4314 5.46957 19.6421 6 19.6421C6.53043 19.6421 7.03914 19.4314 7.41421 19.0563C7.78929 18.6812 8 18.1725 8 17.6421M4 17.6421C4 17.1117 4.21071 16.6029 4.58579 16.2279C4.96086 15.8528 5.46957 15.6421 6 15.6421C6.53043 15.6421 7.03914 15.8528 7.41421 16.2279C7.78929 16.6029 8 17.1117 8 17.6421M4 17.6421H2V6.64209C2 6.37687 2.10536 6.12252 2.29289 5.93498C2.48043 5.74745 2.73478 5.64209 3 5.64209H17C18.3261 5.64209 19.5979 6.37959 20.5355 7.69234C21.4732 9.0051 22 10.7856 22 12.6421M8 17.6421H16M16 17.6421C16 18.1725 16.2107 18.6812 16.5858 19.0563C16.9609 19.4314 17.4696 19.6421 18 19.6421C18.5304 19.6421 19.0391 19.4314 19.4142 19.0563C19.7893 18.6812 20 18.1725 20 17.6421M16 17.6421C16 17.1117 16.2107 16.6029 16.5858 16.2279C16.9609 15.8528 17.4696 15.6421 18 15.6421C18.5304 15.6421 19.0391 15.8528 19.4142 16.2279C19.7893 16.6029 20 17.1117 20 17.6421M20 17.6421H22V12.6421M22 12.6421H17.5L16 5.64209M2 10.6421H17M7 5.64209V10.6421M12 5.64209V10.6421" stroke="#F46D88" stroke-width="2" stroke-linecap="round" stroke-linejoin="round"/>
</svg>
