<svg width="24" height="25" viewBox="0 0 24 25" fill="none" xmlns="http://www.w3.org/2000/svg">
<path d="M7.37851 10.8328L5.14505 13.0663C4.31092 13.9004 3.83124 15.0354 3.84001 16.2282C3.84877 17.421 4.31796 18.5629 5.19167 19.4096C6.03836 20.2834 7.18048 20.7525 8.3731 20.7613C9.59293 20.7703 10.701 20.3176 11.5352 19.4835L13.7687 17.25M16.6215 14.4518L18.8549 12.2183C19.6891 11.3842 20.1688 10.2492 20.16 9.05639C20.1512 7.86358 19.682 6.72169 18.8083 5.87496C17.9618 5.02847 16.8199 4.55926 15.6271 4.5505C14.4343 4.54173 13.2992 4.99418 12.465 5.82834L10.2315 8.06179M8.6131 15.9695L15.3135 9.2691" stroke="white" stroke-width="2" stroke-linecap="round" stroke-linejoin="round"/>
</svg>
